<svg width="43" height="42" viewBox="0 0 43 42" fill="none" xmlns="http://www.w3.org/2000/svg">
<path d="M42.5 21C42.5 32.3108 33.1091 41.5 21.5 41.5C9.89086 41.5 0.5 32.3108 0.5 21C0.5 9.68919 9.89086 0.5 21.5 0.5C33.1091 0.5 42.5 9.68919 42.5 21Z" fill="#E16449" stroke="#E16449"/>
<path d="M22.4817 10.6992C22.5592 10.0845 21.7835 9.74958 21.3858 10.225L11.1459 22.463C10.8073 22.8663 11.096 23.4798 11.6236 23.4798H20.7952C21.1693 23.4798 21.4593 23.8062 21.4121 24.1765L20.5196 31.3019C20.4408 31.9155 21.2152 32.2504 21.6142 31.7749L31.8541 19.537C32.1927 19.1337 31.904 18.5201 31.3764 18.5201H22.2048C21.8307 18.5201 21.5407 18.1938 21.5879 17.8235L22.4817 10.6992Z" fill="white" stroke="white" stroke-width="1.5" stroke-linecap="round" stroke-linejoin="round"/>
</svg>
