<svg width="36" height="36" viewBox="0 0 36 36" fill="none" xmlns="http://www.w3.org/2000/svg">
<rect x="0.666656" y="0.666672" width="34.6667" height="34.6667" rx="17.3333" fill="#E16449"/>
<mask id="mask0_3_99" style="mask-type:luminance" maskUnits="userSpaceOnUse" x="10" y="11" width="17" height="14">
<path d="M16.6 12.2333H11" stroke="white" stroke-width="1.5" stroke-linecap="round" stroke-linejoin="round"/>
<path d="M16.6 15.9667H11" stroke="white" stroke-width="1.5" stroke-linecap="round" stroke-linejoin="round"/>
<path d="M16.6 19.7H11" stroke="white" stroke-width="1.5" stroke-linecap="round" stroke-linejoin="round"/>
<path d="M16.6 23.4333H11" stroke="white" stroke-width="1.5" stroke-linecap="round" stroke-linejoin="round"/>
<path d="M25.9333 17.8333C25.9333 14.744 22.6667 12 18.2333 12C17.7667 12 16.6 14.5667 16.6 17.8333C16.6 21.1 17.7667 23.6667 18.2333 23.6667C22.6667 23.6667 25.9333 20.9227 25.9333 17.8333Z" stroke="black" stroke-width="1.5" stroke-linecap="round" stroke-linejoin="round"/>
<path d="M25.9333 17.8333C25.9333 14.744 22.6667 12 18.2333 12C17.7667 12 16.6 14.5667 16.6 17.8333C16.6 21.1 17.7667 23.6667 18.2333 23.6667C22.6667 23.6667 25.9333 20.9227 25.9333 17.8333Z" stroke="white" stroke-width="1.5" stroke-linecap="round" stroke-linejoin="round"/>
</mask>
<g mask="url(#mask0_3_99)">
<path d="M28.7333 6.63335H6.33331V29.0334H28.7333V6.63335Z" fill="#E6E6E6"/>
</g>
<path d="M20.6667 20.3333C20.1393 20.3333 19.6237 20.1769 19.1851 19.8839C18.7466 19.5909 18.4048 19.1744 18.203 18.6872C18.0012 18.1999 17.9483 17.6637 18.0512 17.1464C18.1541 16.6291 18.4081 16.154 18.781 15.781C19.154 15.4081 19.6291 15.1541 20.1464 15.0512C20.6637 14.9483 21.1999 15.0012 21.6872 15.203C22.1744 15.4048 22.5909 15.7466 22.8839 16.1851C23.1769 16.6237 23.3333 17.1393 23.3333 17.6667C23.3333 18.3739 23.0524 19.0522 22.5523 19.5523C22.0522 20.0524 21.3739 20.3333 20.6667 20.3333ZM20.6667 16.3333C20.403 16.3333 20.1452 16.4115 19.9259 16.558C19.7066 16.7045 19.5357 16.9128 19.4348 17.1564C19.3339 17.4001 19.3075 17.6681 19.359 17.9268C19.4104 18.1854 19.5374 18.423 19.7239 18.6095C19.9103 18.7959 20.1479 18.9229 20.4065 18.9744C20.6652 19.0258 20.9333 18.9994 21.1769 18.8985C21.4205 18.7976 21.6288 18.6267 21.7753 18.4074C21.9218 18.1882 22 17.9304 22 17.6667C22 17.313 21.8595 16.9739 21.6095 16.7239C21.3594 16.4738 21.0203 16.3333 20.6667 16.3333Z" fill="#E6E6E6"/>
</svg>
