<svg width="36" height="36" viewBox="0 0 36 36" fill="none" xmlns="http://www.w3.org/2000/svg">
<rect x="0.666672" y="0.666672" width="34.6667" height="34.6667" rx="17.3333" fill="#12660B"/>
<path d="M18.3331 18.5556V10L24.5553 13.1111L18.3331 16.2222" stroke="#E6E6E6" stroke-width="1.4" stroke-linecap="round" stroke-linejoin="round"/>
<path d="M24.9916 16.3949C25.4055 17.6705 25.4443 19.0383 25.1032 20.3353C24.7622 21.6323 24.0557 22.8041 23.0679 23.7112C22.08 24.6183 20.8524 25.2225 19.5311 25.452C18.2097 25.6814 16.8502 25.5265 15.6144 25.0056C14.3786 24.4847 13.3184 23.6197 12.56 22.5136C11.8016 21.4075 11.377 20.1068 11.3365 18.7663C11.2961 17.4258 11.6416 16.1018 12.3319 14.952C13.0223 13.8022 14.0284 12.8749 15.2305 12.2804" stroke="#E6E6E6" stroke-width="1.4" stroke-linecap="round" stroke-linejoin="round"/>
<path d="M15.2235 16.2199C14.8338 16.7387 14.5801 17.3468 14.4855 17.9887C14.3909 18.6307 14.4584 19.2861 14.6819 19.8952C14.9054 20.5044 15.2778 21.048 15.7651 21.4764C16.2525 21.9048 16.8393 22.2045 17.472 22.3481C18.1048 22.4918 18.7635 22.4748 19.388 22.2987C20.0126 22.1226 20.5831 21.7931 21.0477 21.3401C21.5123 20.8871 21.8561 20.325 22.0479 19.7051C22.2397 19.0852 22.2734 18.4272 22.1458 17.791" stroke="#E6E6E6" stroke-width="1.4" stroke-linecap="round" stroke-linejoin="round"/>
</svg>
