<svg width="36" height="36" viewBox="0 0 36 36" fill="none" xmlns="http://www.w3.org/2000/svg">
<rect x="0.666656" y="0.666672" width="34.6667" height="34.6667" rx="17.3333" fill="#2E2E2E"/>
<path d="M19.25 26.75H16.75C16.4185 26.75 16.1005 26.6183 15.8661 26.3839C15.6317 26.1495 15.5 25.8315 15.5 25.5V21.125C15.1685 21.125 14.8505 20.9933 14.6161 20.7589C14.3817 20.5245 14.25 20.2065 14.25 19.875V16.125C14.25 15.6277 14.4475 15.1508 14.7992 14.7992C15.1508 14.4475 15.6277 14.25 16.125 14.25H19.875C20.3723 14.25 20.8492 14.4475 21.2008 14.7992C21.5525 15.1508 21.75 15.6277 21.75 16.125V19.875C21.75 20.2065 21.6183 20.5245 21.3839 20.7589C21.1495 20.9933 20.8315 21.125 20.5 21.125V25.5C20.5 25.8315 20.3683 26.1495 20.1339 26.3839C19.8995 26.6183 19.5815 26.75 19.25 26.75ZM16.125 15.5C16.0415 15.4945 15.9578 15.5069 15.8794 15.5363C15.8011 15.5658 15.73 15.6116 15.6708 15.6708C15.6116 15.73 15.5658 15.8011 15.5363 15.8794C15.5069 15.9578 15.4945 16.0415 15.5 16.125V19.875H16.75V25.5H19.25V19.875H20.5V16.125C20.5055 16.0415 20.4931 15.9578 20.4637 15.8794C20.4342 15.8011 20.3884 15.73 20.3292 15.6708C20.27 15.6116 20.1989 15.5658 20.1206 15.5363C20.0422 15.5069 19.9585 15.4945 19.875 15.5H16.125ZM18 13.625C17.5055 13.625 17.0222 13.4784 16.6111 13.2037C16.2 12.929 15.8795 12.5385 15.6903 12.0817C15.5011 11.6249 15.4516 11.1222 15.548 10.6373C15.6445 10.1523 15.8826 9.70687 16.2322 9.35723C16.5819 9.0076 17.0273 8.7695 17.5123 8.67304C17.9972 8.57657 18.4999 8.62608 18.9567 8.8153C19.4135 9.00452 19.804 9.32495 20.0787 9.73608C20.3534 10.1472 20.5 10.6305 20.5 11.125C20.5 11.788 20.2366 12.4239 19.7678 12.8928C19.2989 13.3616 18.663 13.625 18 13.625ZM18 9.875C17.7528 9.875 17.5111 9.94831 17.3055 10.0857C17.1 10.223 16.9398 10.4182 16.8452 10.6466C16.7505 10.8751 16.7258 11.1264 16.774 11.3689C16.8222 11.6113 16.9413 11.8341 17.1161 12.0089C17.2909 12.1837 17.5137 12.3028 17.7561 12.351C17.9986 12.3992 18.2499 12.3745 18.4784 12.2799C18.7068 12.1852 18.902 12.025 19.0393 11.8195C19.1767 11.6139 19.25 11.3722 19.25 11.125C19.25 10.7935 19.1183 10.4755 18.8839 10.2411C18.6495 10.0067 18.3315 9.875 18 9.875Z" fill="#E6E6E6"/>
</svg>
