<svg width="24" height="24" viewBox="0 0 24 24" fill="none" xmlns="http://www.w3.org/2000/svg">
<path d="M21.3333 10H14.94L21.1067 3.83333C21.2159 3.7058 21.2729 3.54175 21.2665 3.37396C21.26 3.20618 21.1904 3.04702 21.0717 2.92829C20.953 2.80956 20.7938 2.74001 20.626 2.73353C20.4582 2.72705 20.2942 2.78412 20.1667 2.89333L14 9.06V2.66667C14 2.48986 13.9298 2.32029 13.8047 2.19526C13.6797 2.07024 13.5101 2 13.3333 2C13.1565 2 12.9869 2.07024 12.8619 2.19526C12.7369 2.32029 12.6667 2.48986 12.6667 2.66667V11.3333H21.3333C21.5101 11.3333 21.6797 11.2631 21.8047 11.1381C21.9298 11.013 22 10.8435 22 10.6667C22 10.4899 21.9298 10.3203 21.8047 10.1953C21.6797 10.0702 21.5101 10 21.3333 10Z" fill="#E6E6E6"/>
<path d="M2.66667 12.6667C2.48986 12.6667 2.32029 12.7369 2.19526 12.8619C2.07024 12.987 2 13.1565 2 13.3333C2 13.5101 2.07024 13.6797 2.19526 13.8047C2.32029 13.9298 2.48986 14 2.66667 14H9.06L2.88667 20.1667C2.81688 20.2264 2.7602 20.3 2.72018 20.3827C2.68017 20.4654 2.65768 20.5555 2.65413 20.6473C2.65059 20.7391 2.66606 20.8307 2.69958 20.9162C2.73309 21.0018 2.78393 21.0795 2.8489 21.1444C2.91387 21.2094 2.99157 21.2602 3.07712 21.2938C3.16267 21.3273 3.25422 21.3427 3.34604 21.3392C3.43785 21.3357 3.52794 21.3132 3.61065 21.2732C3.69336 21.2331 3.7669 21.1765 3.82667 21.1067L10 14.94V21.3333C10 21.5101 10.0702 21.6797 10.1953 21.8047C10.3203 21.9298 10.4899 22 10.6667 22C10.8435 22 11.013 21.9298 11.1381 21.8047C11.2631 21.6797 11.3333 21.5101 11.3333 21.3333V12.6667H2.66667Z" fill="#E6E6E6"/>
</svg>
